<svg width="66" height="66" viewBox="0 0 66 66" fill="none" xmlns="http://www.w3.org/2000/svg">
<path fill-rule="evenodd" clip-rule="evenodd" d="M34.4144 0.0288978L34.0798 0.0159164L34.0293 0.0144746C33.7141 0.00509796 33.3707 4.59189e-05 32.9993 4.59189e-05C32.6343 4.59189e-05 32.2953 0.00437157 31.983 0.0137482L31.8431 0.0692893V0.0685684L31.6512 0.145747C30.8686 0.463831 30.1091 0.814374 29.3763 1.19737C28.637 1.58326 27.9143 2.00521 27.2125 2.46178C26.4356 2.96739 25.6884 3.50907 24.975 4.08538C24.2653 4.65807 23.5902 5.26467 22.9526 5.90228H22.9533C22.4845 6.37111 22.0438 6.84571 21.6297 7.32464C21.2056 7.81583 20.8017 8.31929 20.4209 8.83212C19.9052 9.52599 19.4277 10.2408 18.9891 10.9707C18.5946 11.6285 18.2304 12.3015 17.8971 12.9867C18.8449 12.7696 19.8056 12.5986 20.7757 12.476C21.9262 12.3303 23.0918 12.2517 24.266 12.2438C24.5884 11.7901 24.9325 11.3443 25.2982 10.908C25.6956 10.4334 26.1204 9.96958 26.5705 9.5195L26.5698 9.51878C26.872 9.21656 27.185 8.92156 27.5067 8.63521C27.8255 8.35175 28.1516 8.07911 28.4833 7.81728C28.7307 7.62254 28.9789 7.43572 29.227 7.25757V7.25901C29.4816 7.07653 29.7362 6.90198 29.9894 6.73752L29.9908 6.73608L30.1769 6.61635L30.1784 6.6149C30.6025 6.34586 31.0403 6.08909 31.4904 5.84674C31.9311 5.60944 32.3862 5.38512 32.8536 5.17523L32.9978 5.11031L33.0685 5.0793H33.145C33.7667 5.08291 34.3784 5.10599 34.9799 5.14854C35.5843 5.19038 36.1931 5.25457 36.8048 5.33752C38.4103 5.55751 40.0007 5.91742 41.5558 6.41583C43.0907 6.90918 44.5903 7.5367 46.035 8.29982C46.8399 8.72465 47.6283 9.19276 48.3979 9.70199C49.1552 10.2033 49.8953 10.7471 50.6137 11.3328C50.9779 11.6292 51.3407 11.9408 51.7013 12.2669C52.0706 12.6001 52.4183 12.9297 52.7443 13.2565C53.0703 13.5825 53.4007 13.9301 53.7332 14.2994C54.0412 14.6391 54.3362 14.9818 54.6175 15.3258C56.0038 16.019 57.3389 16.8261 58.609 17.7399C59.8922 18.6632 61.1047 19.6917 62.2313 20.8198C62.8819 21.4704 63.5022 22.1549 64.0901 22.8689C64.2704 23.0875 64.4471 23.3089 64.6202 23.5325C63.9415 21.2562 63.011 19.039 61.8317 16.9249C60.3805 14.3261 58.5485 11.8795 56.3349 9.66592C54.1205 7.45231 51.6747 5.61954 49.0752 4.16904C46.3884 2.66878 43.5343 1.57316 40.6023 0.882171C39.5824 0.641985 38.5567 0.450846 37.5296 0.309476C36.4946 0.166662 35.4545 0.0728959 34.4144 0.0288978ZM23.6847 30.1604C24.0958 29.5155 24.543 28.8916 25.0263 28.2908C25.5073 27.6921 26.0223 27.1173 26.5698 26.5698C27.1172 26.0231 27.6921 25.5081 28.2908 25.0263C28.6918 24.7032 29.1044 24.3966 29.5256 24.1059C28.8296 23.9047 28.1198 23.7446 27.4007 23.6285C26.4457 23.4734 25.4677 23.394 24.4745 23.394C24.2256 23.394 23.9984 23.3976 23.7936 23.4063C23.5786 23.4128 23.3507 23.4272 23.112 23.4438C22.949 23.4568 22.8083 23.4691 22.6958 23.4792C22.615 23.4871 22.5198 23.4979 22.4109 23.5102C22.1815 23.754 21.9579 23.9992 21.7423 24.2459C21.4978 24.5257 21.2561 24.8135 21.0203 25.1078C20.048 26.3196 19.199 27.5955 18.4749 28.9183C17.7348 30.2707 17.121 31.6758 16.6363 33.114C16.4315 33.722 16.2504 34.3322 16.0925 34.9453C15.9331 35.5635 15.7968 36.1874 15.6828 36.8135C15.5789 37.3876 15.4931 37.9726 15.426 38.5654C15.3597 39.1576 15.3128 39.7462 15.2861 40.3319C15.2774 40.5381 15.2702 40.7379 15.2659 40.9269C15.2623 41.0856 15.2601 41.2861 15.2601 41.5256C15.2601 41.7946 15.2637 42.0297 15.2688 42.2324C15.2745 42.4567 15.2846 42.6919 15.2969 42.9371C15.3589 44.0825 15.4945 45.2236 15.7044 46.3531C15.9122 47.4732 16.1949 48.5847 16.5519 49.6789C16.6998 50.1355 16.8592 50.5834 17.0294 51.0248C17.1989 51.4612 17.3828 51.9012 17.5819 52.339H17.5812L17.6779 52.5532L17.7399 52.6852C19.3411 53.9294 21.0787 54.9666 22.9151 55.7788C24.3576 56.4171 25.8593 56.9177 27.4029 57.2726C27.1172 57.0143 26.8396 56.7511 26.5698 56.482L26.5705 56.4806C26.1204 56.0312 25.6956 55.5667 25.2982 55.0929C24.8921 54.6067 24.512 54.1112 24.1586 53.6041C23.8931 53.2233 23.6407 52.8331 23.4019 52.4378C23.1646 52.0447 22.9389 51.6401 22.7254 51.2275C22.2234 50.2538 21.8007 49.2469 21.4574 48.214C21.1104 47.1703 20.8464 46.1064 20.6676 45.0375V45.036L20.6474 44.912V44.9105C20.5853 44.5275 20.5341 44.146 20.4945 43.7651C20.4541 43.3836 20.4238 42.9991 20.4036 42.6118C20.3949 42.4409 20.3884 42.2577 20.3834 42.068C20.3783 41.8538 20.3754 41.6734 20.3754 41.5256L20.3769 41.5241L20.3776 41.32V41.3171L20.3805 41.1123V41.1116C20.4086 39.6928 20.5781 38.2755 20.8897 36.8834C21.1977 35.5072 21.6449 34.1563 22.2299 32.8536C22.4405 32.3855 22.6662 31.9261 22.9071 31.4796C23.1452 31.0396 23.4048 30.5989 23.6847 30.1604M30.1603 42.3154C29.5155 41.9042 28.8916 41.4563 28.2908 40.9731C27.6921 40.4927 27.1172 39.977 26.5698 39.4303L26.5705 39.4288C26.0187 38.8785 25.5037 38.3036 25.0263 37.7107C24.7038 37.309 24.3966 36.8964 24.1059 36.4752C23.9047 37.1712 23.7453 37.8809 23.6277 38.6008C23.4733 39.5543 23.394 40.5324 23.394 41.5256C23.394 41.7744 23.3976 42.0016 23.4055 42.2057C23.4135 42.4214 23.4265 42.6493 23.4438 42.8888H23.4445C23.4567 43.0511 23.4683 43.1917 23.4791 43.305C23.487 43.385 23.4971 43.481 23.5101 43.5892C23.7539 43.8185 23.9999 44.0428 24.2465 44.2585C24.5264 44.5037 24.8135 44.7446 25.1078 44.9798C26.3188 45.9513 27.5947 46.801 28.9183 47.5252C30.2714 48.2659 31.6757 48.879 33.1132 49.3637C33.7213 49.5693 34.3329 49.7496 34.9446 49.9076C35.5634 50.067 36.1866 50.2033 36.8127 50.3173C37.3868 50.4218 37.9718 50.5077 38.5654 50.574C39.1568 50.6411 39.7469 50.688 40.3318 50.7132C40.5381 50.7233 40.7379 50.7298 40.9276 50.7342C41.0877 50.737 41.2882 50.7399 41.5255 50.7399C41.7938 50.7399 42.0304 50.737 42.2331 50.7313C42.4567 50.7262 42.6926 50.7161 42.9356 50.7031C44.081 50.6411 45.2228 50.5062 46.3523 50.2963C47.4718 50.0879 48.584 49.8044 49.6789 49.4481C50.1347 49.3002 50.5834 49.1408 51.0233 48.9706C51.4612 48.8018 51.8997 48.6172 52.3397 48.4181V48.4196L52.5517 48.3229L52.6845 48.2609C53.9287 46.6604 54.9651 44.9221 55.778 43.085C56.4171 41.6439 56.9169 40.1407 57.2711 38.5979C57.0143 38.8828 56.751 39.1612 56.4813 39.4303C56.0362 39.876 55.5725 40.3001 55.0921 40.7026C54.6074 41.1087 54.1104 41.4888 53.6034 41.8422L53.6026 41.8408C53.2124 42.1127 52.8244 42.3651 52.4385 42.5974C52.0447 42.8354 51.6408 43.0612 51.2267 43.2754C50.2537 43.7767 49.2454 44.1994 48.214 44.5427C47.1703 44.8896 46.1071 45.1529 45.0367 45.3332H45.0353L44.9119 45.3527H44.9105C44.5275 45.4147 44.1438 45.4659 43.7644 45.5063C43.3807 45.546 42.9955 45.577 42.6118 45.5965C42.4408 45.6051 42.2584 45.6123 42.0665 45.6167C41.853 45.6217 41.6727 45.6246 41.5255 45.6246L41.5241 45.6232H41.32H41.3171L41.113 45.6196H41.1108C39.692 45.5922 38.2754 45.4219 36.8841 45.1103C35.5072 44.8023 34.1562 44.3559 32.8536 43.7709C32.3855 43.5596 31.926 43.3345 31.4803 43.0936C31.0396 42.8549 30.5981 42.596 30.1603 42.3154M42.3153 35.8397C41.9042 36.4838 41.457 37.1092 40.9738 37.7093C40.4927 38.3079 39.9777 38.8828 39.4302 39.4303C38.8828 39.977 38.3072 40.4927 37.7085 40.9745C37.3082 41.2969 36.8956 41.6028 36.4737 41.8941C37.1704 42.0961 37.8802 42.2548 38.5993 42.3724C39.5536 42.5267 40.5323 42.6061 41.5255 42.6061C41.7751 42.6061 42.003 42.6017 42.2086 42.5945C42.4214 42.5859 42.6478 42.5736 42.888 42.5548H42.8895C43.0482 42.544 43.1866 42.5325 43.3042 42.5217C43.385 42.513 43.4795 42.5029 43.5884 42.4906C43.8185 42.2469 44.0421 42.0002 44.2577 41.7535C44.5023 41.4729 44.7432 41.1859 44.9797 40.8916C45.952 39.6813 46.801 38.4053 47.5251 37.081C48.2659 35.7286 48.879 34.3236 49.3637 32.8854C49.5685 32.278 49.7503 31.6671 49.9068 31.0555C50.0669 30.4373 50.204 29.8127 50.3172 29.1874C50.4211 28.6125 50.5076 28.0283 50.5733 27.4354C50.6403 26.8432 50.6872 26.2539 50.7139 25.6682C50.7305 25.2867 50.7399 24.8878 50.7399 24.4745C50.7399 24.2055 50.7363 23.9696 50.7312 23.7677C50.7247 23.5426 50.7161 23.3082 50.7024 23.0637C50.6411 21.9183 50.5062 20.7772 50.2963 19.6484C50.0871 18.5283 49.8051 17.4161 49.4481 16.3204C49.3002 15.8653 49.1401 15.416 48.9706 14.976C48.8004 14.5389 48.6164 14.1003 48.4188 13.6611L48.4195 13.6604L48.3214 13.4476L48.2601 13.3156C46.6596 12.0714 44.9206 11.0349 43.0849 10.222C41.6424 9.5837 40.14 9.08312 38.5971 8.72897C38.882 8.98575 39.1605 9.24902 39.4302 9.51878C39.8752 9.96381 40.2994 10.4276 40.7018 10.908C41.1079 11.3927 41.4887 11.8903 41.8415 12.3967L41.8407 12.3974C42.1127 12.7869 42.3644 13.1757 42.5974 13.5616C42.8347 13.9554 43.0604 14.36 43.2739 14.7733C43.7759 15.7463 44.1993 16.7539 44.5426 17.7861C44.8889 18.8298 45.1536 19.8929 45.3324 20.9633V20.9648L45.3526 21.0888V21.0903C45.414 21.4726 45.4652 21.8548 45.5056 22.2357C45.5467 22.6172 45.577 23.0017 45.5964 23.3875C45.6051 23.5599 45.6116 23.741 45.6166 23.9321C45.6217 24.1456 45.6246 24.3259 45.6246 24.4745C45.6246 24.564 45.6231 24.7046 45.6195 24.8885C45.5914 26.308 45.4219 27.7253 45.1103 29.116C44.8016 30.4929 44.3551 31.8446 43.7702 33.1465C43.5595 33.6153 43.3338 34.0733 43.0929 34.5198C42.8549 34.9605 42.5952 35.4019 42.3153 35.8397M35.8404 23.6847C36.4838 24.0966 37.1084 24.5438 37.7092 25.027C38.3079 25.5081 38.8828 26.0231 39.4302 26.5698C39.9777 27.1173 40.4927 27.6921 40.9738 28.2908C41.2962 28.6926 41.6034 29.1044 41.8941 29.5256C42.0953 28.8296 42.2555 28.1199 42.3716 27.4015C42.5267 26.4458 42.6053 25.4677 42.6053 24.4745C42.6053 24.2242 42.6024 23.997 42.5945 23.7922C42.5865 23.5794 42.5736 23.3522 42.5555 23.1113V23.1099C42.544 22.9526 42.5324 22.8134 42.5209 22.6958C42.5137 22.6158 42.5029 22.5198 42.4899 22.4117C42.2461 22.1816 42.0001 21.9587 41.7535 21.7423C41.4736 21.4971 41.1865 21.2562 40.8915 21.0203C39.6805 20.048 38.4046 19.1998 37.081 18.4749C35.7286 17.7349 34.3236 17.1218 32.886 16.6364C32.278 16.4315 31.6671 16.2505 31.0554 16.0925C30.4366 15.9331 29.8134 15.7968 29.1866 15.6828C28.6132 15.579 28.0282 15.4931 27.4346 15.4268C26.8424 15.3597 26.2531 15.3128 25.6682 15.2869C25.4612 15.2775 25.2614 15.2703 25.0717 15.2659C24.9137 15.2631 24.7139 15.2609 24.4745 15.2609C23.9919 15.2609 23.5209 15.2731 23.0636 15.2977C21.9183 15.359 20.7765 15.4939 19.6469 15.7045C18.5275 15.9122 17.416 16.1957 16.3211 16.552C15.8653 16.6998 15.4166 16.8592 14.9767 17.0295C14.5388 17.1997 14.0996 17.3836 13.661 17.5812H13.6603L13.4475 17.6786L13.3156 17.7399C12.0713 19.3412 11.0341 21.0795 10.2213 22.9158C9.58293 24.3577 9.08236 25.8594 8.72821 27.4029C8.97849 27.1252 9.24248 26.8475 9.51873 26.5713L9.52018 26.5698C9.97025 26.1198 10.4333 25.6956 10.9072 25.2989C11.3926 24.8921 11.8896 24.512 12.3966 24.1586C12.7768 23.8932 13.1662 23.6414 13.5622 23.4027C13.9553 23.1654 14.36 22.9396 14.7733 22.7254C15.7463 22.2241 16.7539 21.8007 17.7853 21.4574C18.8297 21.1112 19.8929 20.8472 20.9633 20.6676H20.9647L21.0881 20.6474H21.0888C21.4725 20.5854 21.8541 20.5349 22.2349 20.4952V20.4945C22.6172 20.4541 23.0016 20.4238 23.3875 20.4043C23.5592 20.3957 23.7417 20.3885 23.9328 20.3834C24.147 20.3784 24.3266 20.3755 24.4745 20.3755C24.5711 20.3755 24.706 20.3769 24.8892 20.3805C26.308 20.4079 27.7253 20.5789 29.1159 20.8898C30.4928 21.1977 31.8445 21.6449 33.1464 22.2299C33.6153 22.4412 34.0733 22.6663 34.5197 22.9072C34.9612 23.1452 35.4011 23.4049 35.8404 23.6847M11.3328 15.3864C11.6292 15.0229 11.9408 14.6593 12.2668 14.298C12.5993 13.9294 12.9297 13.5817 13.2557 13.2557C13.581 12.9304 13.9294 12.6001 14.2979 12.2669C14.6384 11.9596 14.9817 11.6646 15.325 11.3826C16.0182 9.99626 16.8253 8.66118 17.7392 7.391C18.6631 6.10785 19.6917 4.89537 20.819 3.76801L20.8197 3.76873C21.4711 3.11814 22.1556 2.49712 22.8689 1.91C23.0882 1.72968 23.3096 1.55296 23.5325 1.37986C21.2554 2.05858 19.0382 2.98903 16.9241 4.16904C14.3261 5.61954 11.8795 7.45231 9.66515 9.6652C7.45227 11.8788 5.61949 14.3261 4.16828 16.9249C2.66874 19.6116 1.57311 22.4665 0.882125 25.3978C0.641939 26.4176 0.450801 27.4433 0.30943 28.4704C0.166616 29.5062 0.0728499 30.5455 0.0288519 31.5856L0.0158677 31.9203L0.0144259 31.9715C0.00432801 32.286 0 32.63 0 32.9993C0 33.3657 0.00432841 33.7055 0.013705 34.0171L0.0685225 34.1563L0.0678016 34.1577L0.144977 34.3496H0.145698C0.463062 35.1314 0.814325 35.8902 1.1966 36.6245C1.58249 37.3638 2.00516 38.0851 2.46101 38.7883C2.96663 39.5644 3.50903 40.3124 4.08533 41.025C4.6537 41.7297 5.26102 42.4055 5.90224 43.0468H5.90151C6.36313 43.5091 6.83918 43.9512 7.32388 44.3696C7.81579 44.7951 8.31925 45.1983 8.83208 45.5799C9.52595 46.0956 10.2393 46.5731 10.9699 47.0109C11.6278 47.4054 12.3007 47.7704 12.9866 48.1029C12.7688 47.1559 12.5979 46.1951 12.4753 45.225C12.3303 44.0739 12.2517 42.909 12.2437 41.734C11.79 41.4116 11.3436 41.0676 10.9079 40.7012C10.4333 40.3052 9.97025 39.8796 9.52018 39.4303L9.51873 39.4288C9.20858 39.1194 8.91358 38.8063 8.63516 38.494C8.3517 38.1752 8.07834 37.8485 7.81723 37.516C7.62249 37.2693 7.43568 37.0219 7.25752 36.7738C7.08513 36.5329 6.9113 36.279 6.73676 36.0099L6.73531 36.0085L6.61558 35.8224L6.61486 35.8217C6.3451 35.3976 6.08905 34.9605 5.84742 34.5111C5.6094 34.0704 5.38435 33.6139 5.17446 33.1465L5.11027 33.0022L5.07925 32.9322V32.8543C5.08214 32.234 5.10522 31.6217 5.14778 31.0201C5.19033 30.4157 5.2538 29.8077 5.33747 29.1946C5.55746 27.589 5.91738 25.9979 6.41579 24.4435C6.90842 22.9086 7.53665 21.4098 8.29977 19.9651C8.72388 19.1601 9.19199 18.3718 9.70122 17.6022C10.2032 16.8448 10.7471 16.1055 11.3328 15.3864M60.8248 32.8536L60.8897 32.9979L60.9208 33.0686V33.1465C60.9171 33.7675 60.8948 34.3799 60.8515 34.9814C60.8097 35.5858 60.7462 36.1946 60.6625 36.8048C60.4425 38.4104 60.0826 40.0008 59.5842 41.5566C59.0916 43.0908 58.4633 44.591 57.7002 46.0365C57.2754 46.8407 56.8073 47.6298 56.2981 48.3986C55.7968 49.1567 55.2529 49.896 54.6673 50.6144C54.3708 50.9779 54.0592 51.34 53.7339 51.7007H53.7354C53.4108 52.0599 53.0804 52.4082 52.7443 52.7444H52.7429C52.4075 53.0798 52.0605 53.4094 51.7013 53.734V53.7347C51.3703 54.034 51.0277 54.3283 50.6742 54.6182C49.9811 56.0045 49.174 57.3404 48.2601 58.6091C47.3369 59.893 46.3083 61.104 45.181 62.2328C44.5354 62.8776 43.8502 63.4979 43.1311 64.0894C42.9118 64.2697 42.6911 64.4471 42.4675 64.6202C44.7439 63.9415 46.9618 63.0118 49.0752 61.831C51.6739 60.3813 54.1205 58.5485 56.3349 56.3356C58.5477 54.1213 60.3805 51.674 61.831 49.0759C63.3313 46.3884 64.4269 43.5343 65.1179 40.6023C65.3581 39.5824 65.5492 38.5575 65.6906 37.5304C65.8334 36.4946 65.9272 35.4553 65.9712 34.4152L65.9841 34.0798L65.9856 34.0308V34.0293C65.995 33.7141 66 33.3701 66 32.9993C66 32.6351 65.9957 32.2954 65.9856 31.9823L65.9308 31.8431H65.9315L65.855 31.6513H65.8543C65.5369 30.8694 65.1857 30.1099 64.8034 29.3763C64.4175 28.637 63.9948 27.915 63.5383 27.2125C63.0334 26.4364 62.491 25.6884 61.9154 24.9751C61.3456 24.2704 60.739 23.5946 60.097 22.9541C59.6289 22.4845 59.1536 22.0431 58.6747 21.6298C58.1835 21.2057 57.6808 20.8018 57.1679 20.4209C56.4741 19.9059 55.76 19.4284 55.0293 18.9899C54.3715 18.5946 53.6979 18.2304 53.0126 17.8972C53.2305 18.8442 53.4014 19.8057 53.524 20.7758C53.6697 21.927 53.7483 23.0933 53.7556 24.2675C54.2157 24.5935 54.6615 24.9383 55.0928 25.2997C55.5725 25.7007 56.037 26.1248 56.4813 26.5698C56.7842 26.8721 57.0792 27.1851 57.3656 27.5075C57.649 27.8263 57.9217 28.1523 58.1828 28.4834C58.3782 28.7308 58.565 28.9804 58.7432 29.2285L58.7425 29.2299C58.9242 29.4831 59.0981 29.737 59.2625 29.9901L59.264 29.9916L59.3837 30.1777L59.3851 30.1791C59.6542 30.6018 59.911 31.0403 60.1526 31.4897C60.3906 31.9304 60.6149 32.3855 60.8248 32.8536M33.1464 60.8256L33.0022 60.8898L32.9315 60.9208H32.8543C32.2333 60.9179 31.6202 60.8941 31.0186 60.8523C30.4142 60.8097 29.8062 60.7462 29.1945 60.6619C27.5897 60.4433 25.9993 60.0827 24.4442 59.5843C22.9093 59.0923 21.409 58.4641 19.9643 57.701C19.1601 57.2769 18.371 56.8088 17.6021 56.2988C16.8448 55.7975 16.1047 55.2537 15.3863 54.6673C15.0221 54.3716 14.6586 54.0593 14.2979 53.734C13.9395 53.4094 13.5918 53.0798 13.2571 52.7444H13.2557C12.9297 52.4176 12.5993 52.07 12.2661 51.7007H12.2646C11.966 51.371 11.6718 51.0277 11.3818 50.675C9.99622 49.9804 8.66041 49.1747 7.39096 48.2609C6.1078 47.3376 4.89533 46.3084 3.76797 45.181C3.1217 44.5362 2.50212 43.8495 1.91067 43.1311C1.73035 42.9119 1.55292 42.6904 1.37981 42.4676C2.05853 44.7446 2.98827 46.9619 4.16828 49.0759C5.61949 51.674 7.45154 54.1213 9.66515 56.3356C11.8788 58.5485 14.3253 60.3798 16.9241 61.831C19.6116 63.3313 22.4664 64.4277 25.3977 65.1179C26.4176 65.3588 27.4433 65.55 28.4696 65.6913C29.5054 65.8334 30.5455 65.9279 31.5856 65.9712L31.9202 65.9842L31.9693 65.9856C32.2852 65.9957 32.6293 66.0008 32.9993 66.0008C33.365 66.0008 33.7054 65.9957 34.017 65.9871L34.1577 65.9322L34.3481 65.8543C35.1307 65.5377 35.8909 65.185 36.6237 64.8034C37.363 64.4176 38.0857 63.9949 38.7868 63.5383C39.5644 63.0341 40.3116 62.4917 41.025 61.9154C41.7304 61.3463 42.4048 60.739 43.0467 60.0985C43.5148 59.629 43.9562 59.1544 44.3695 58.6754C44.7944 58.185 45.1976 57.6808 45.5791 57.168C46.0948 56.4734 46.5723 55.7593 47.0109 55.0294C47.4054 54.3716 47.7697 53.6986 48.1036 53.0134C47.1551 53.2305 46.1944 53.4014 45.2243 53.5248C44.0738 53.6705 42.9075 53.7477 41.7333 53.7563C41.4108 54.21 41.0675 54.6565 40.7018 55.0929C40.3044 55.5667 39.8796 56.0312 39.4295 56.4806L39.4302 56.482C39.128 56.7835 38.815 57.0793 38.4925 57.3656C38.1745 57.6483 37.8484 57.9217 37.5167 58.1835C37.2822 58.3667 37.0334 58.5543 36.7716 58.7432V58.7447C36.5321 58.9164 36.2775 59.0895 36.0106 59.2633L36.0092 59.264L35.8224 59.3845L35.8209 59.3852C35.3975 59.6549 34.9597 59.911 34.5111 60.1534C34.0697 60.3914 33.6145 60.6157 33.1464 60.8256" fill="#00ADFF"/>
</svg>
