<?xml version="1.0" encoding="utf-8"?>
<!-- Generator: Adobe Illustrator 23.0.4, SVG Export Plug-In . SVG Version: 6.00 Build 0)  -->
<svg version="1.1" id="Calque_1" xmlns="http://www.w3.org/2000/svg" xmlns:xlink="http://www.w3.org/1999/xlink" x="0px" y="0px"
	 viewBox="0 0 100 77.2" style="enable-background:new 0 0 100 77.2;" xml:space="preserve">
<style type="text/css">
	.st0{fill:#2F2F30;}
</style>
<g>
	<path class="st0" d="M3.1,3.2h10.8v1.9H9.5v15.1H7.5V5.1H3.1V3.2z"/>
	<path class="st0" d="M18.2,3.2V10h9.4V3.2h2.1v17h-2.1v-8.3h-9.4v8.3h-2.1v-17H18.2z"/>
	<path class="st0" d="M35.6,18.3h7.7v1.9h-7.7h-0.9h-1.1v-17h1.1h0.9h7.7v1.9h-7.7V10h7.2v1.9h-7.2V18.3z"/>
	<path class="st0" d="M6.8,46.6H4.8v-17h1.1h0.9h6.7v1.9H6.8v4.9h6.5v1.9H6.8V46.6z"/>
	<path class="st0" d="M18.9,29.5V41c0,1.2,0.3,2.1,1,2.8c0.6,0.7,1.6,1.1,2.8,1.1c1.2,0,2.1-0.4,2.8-1.1c0.6-0.7,0.9-1.7,0.9-2.8
		V29.5h2.1V41c0,1.1-0.2,2.1-0.7,3c-0.5,0.9-1.1,1.6-2,2.1c-0.9,0.5-1.9,0.8-3.1,0.8c-1.2,0-2.2-0.3-3.1-0.8c-0.9-0.5-1.5-1.2-2-2.1
		s-0.7-1.9-0.7-3V29.5H18.9z"/>
	<path class="st0" d="M30.5,29.5h10.8v1.9h-4.4v15.1h-2.1V31.5h-4.4V29.5z"/>
	<path class="st0" d="M45.5,29.5V41c0,1.2,0.3,2.1,1,2.8c0.6,0.7,1.6,1.1,2.8,1.1s2.1-0.4,2.8-1.1c0.6-0.7,0.9-1.7,0.9-2.8V29.5H55
		V41c0,1.1-0.2,2.1-0.7,3c-0.5,0.9-1.1,1.6-2,2.1c-0.9,0.5-1.9,0.8-3.1,0.8c-1.2,0-2.2-0.3-3.1-0.8c-0.9-0.5-1.5-1.2-2-2.1
		s-0.7-1.9-0.7-3V29.5H45.5z"/>
	<path class="st0" d="M60.8,46.6h-2.1v-17h1.1h0.9h2.6c1.1,0,2.1,0.2,3,0.6c0.9,0.4,1.6,1,2.1,1.8c0.5,0.8,0.8,1.7,0.8,2.7
		c0,1.3-0.4,2.3-1.1,3.2c-0.8,0.9-1.7,1.4-2.9,1.7l5.1,7h-2.6l-4.7-6.8h-2.1V46.6z M63.4,37.9c1.1,0,2-0.3,2.7-0.9
		c0.7-0.6,1-1.4,1-2.4c0-1.1-0.3-1.9-1-2.4c-0.7-0.6-1.6-0.9-2.7-0.9h-2.6v6.6H63.4z"/>
	<path class="st0" d="M74.5,44.6h7.7v1.9h-7.7h-0.9h-1.1v-17h1.1h0.9h7.7v1.9h-7.7v4.9h7.2v1.9h-7.2V44.6z"/>
	<path class="st0" d="M7.4,70.2c0.7,0.7,1.6,1,2.6,1c1,0,1.7-0.2,2.2-0.7c0.5-0.5,0.7-1.2,0.7-2c0-0.7-0.2-1.3-0.6-1.8
		c-0.4-0.5-0.9-0.9-1.5-1.2c-0.6-0.3-1.2-0.6-1.9-0.8c-0.4-0.1-0.9-0.3-1.4-0.5c-0.5-0.2-1-0.5-1.4-0.8C5.7,63,5.4,62.6,5.1,62
		c-0.3-0.5-0.4-1.2-0.4-2c0-0.9,0.2-1.6,0.6-2.3c0.4-0.7,1-1.2,1.7-1.5c0.7-0.4,1.6-0.6,2.6-0.6c0.9,0,1.7,0.2,2.4,0.5
		c0.7,0.3,1.2,0.8,1.7,1.3c0.5,0.6,0.9,1.2,1.1,1.8l-1.7,1.1c-0.2-0.5-0.5-0.9-0.9-1.4c-0.3-0.4-0.8-0.8-1.2-1
		c-0.5-0.3-1-0.4-1.7-0.4c-0.8,0-1.5,0.2-1.9,0.7c-0.4,0.4-0.6,1-0.6,1.8c0,0.6,0.2,1,0.6,1.4c0.4,0.4,0.9,0.7,1.5,1
		c0.6,0.3,1.2,0.6,1.9,0.8c0.4,0.2,0.9,0.4,1.4,0.6c0.5,0.3,1,0.6,1.4,1c0.4,0.4,0.8,0.9,1.1,1.4c0.3,0.6,0.4,1.2,0.4,2
		c0,1-0.2,1.8-0.6,2.5c-0.4,0.7-1,1.3-1.8,1.7c-0.8,0.4-1.7,0.6-2.7,0.6c-1.4,0-2.6-0.4-3.7-1.3c-1.1-0.9-1.9-2-2.4-3.4l1.8-1
		C6.1,68.6,6.7,69.6,7.4,70.2z"/>
	<path class="st0" d="M17.8,61c0.4-1.1,1-2,1.8-2.8c0.8-0.8,1.7-1.4,2.8-1.9c1.1-0.4,2.2-0.7,3.4-0.7c1.2,0,2.4,0.2,3.4,0.7
		c1,0.4,2,1.1,2.7,1.9c0.8,0.8,1.4,1.7,1.8,2.8c0.4,1.1,0.6,2.2,0.6,3.5c0,1.2-0.2,2.4-0.6,3.5c-0.4,1.1-1,2-1.8,2.8
		c-0.8,0.8-1.7,1.4-2.7,1.9c-1,0.4-2.2,0.7-3.4,0.7c-1.2,0-2.4-0.2-3.4-0.7c-1.1-0.4-2-1.1-2.8-1.9c-0.8-0.8-1.4-1.7-1.8-2.8
		c-0.4-1.1-0.6-2.2-0.6-3.5C17.1,63.2,17.4,62,17.8,61z M20.2,67.9c0.6,1,1.3,1.8,2.3,2.4c1,0.6,2.1,0.9,3.3,0.9
		c1.2,0,2.4-0.3,3.3-0.9c1-0.6,1.7-1.4,2.3-2.4c0.6-1,0.8-2.2,0.8-3.4c0-1.3-0.3-2.4-0.8-3.4c-0.6-1-1.3-1.8-2.3-2.4
		c-1-0.6-2.1-0.9-3.3-0.9c-1.2,0-2.3,0.3-3.3,0.9S20.7,60,20.2,61c-0.6,1-0.8,2.2-0.8,3.4C19.3,65.7,19.6,66.9,20.2,67.9z"/>
	<path class="st0" d="M39.5,67.9c0.6,1,1.4,1.8,2.3,2.4c1,0.6,2,0.9,3.1,0.9c1.2,0,2.3-0.2,3.2-0.7s1.7-1.1,2.3-1.8v2.7
		c-0.7,0.6-1.5,1.1-2.3,1.4s-1.9,0.5-3.1,0.5c-1.2,0-2.3-0.2-3.3-0.6c-1-0.4-1.9-1-2.7-1.8C38.1,70,37.5,69,37,68
		c-0.4-1.1-0.7-2.2-0.7-3.5c0-1.3,0.2-2.4,0.7-3.5c0.4-1.1,1-2,1.8-2.8c0.8-0.8,1.7-1.4,2.7-1.8c1-0.4,2.1-0.6,3.3-0.6
		c1.2,0,2.3,0.2,3.1,0.5s1.6,0.8,2.3,1.4v2.7c-0.6-0.8-1.4-1.4-2.3-1.8c-0.9-0.5-2-0.7-3.2-0.7c-1.1,0-2.2,0.3-3.1,0.9
		c-1,0.6-1.7,1.4-2.3,2.4c-0.6,1-0.9,2.2-0.9,3.5C38.6,65.8,38.9,66.9,39.5,67.9z"/>
	<path class="st0" d="M56.1,55.9v17H54v-17H56.1z"/>
	<path class="st0" d="M62.1,71h7.7V73h-7.7h-0.9H60v-17h1.1h0.9h7.7v1.9h-7.7v4.9h7.2v1.9h-7.2V71z"/>
	<path class="st0" d="M71.7,55.9h10.8v1.9h-4.4V73h-2.1V57.9h-4.4V55.9z"/>
	<path class="st0" d="M97,55.9l-5.7,9.7V73h-2.1v-7.3l-5.7-9.7h2.3l4.4,7.9l4.4-7.9H97z"/>
</g>
</svg>
