<?xml version="1.0" encoding="utf-8"?>
<!-- Generator: Adobe Illustrator 25.0.0, SVG Export Plug-In . SVG Version: 6.00 Build 0)  -->
<svg version="1.1" id="Layer_1" xmlns="http://www.w3.org/2000/svg" xmlns:xlink="http://www.w3.org/1999/xlink" x="0px" y="0px"
	 viewBox="0 0 158.1 201.2" style="enable-background:new 0 0 158.1 201.2;" xml:space="preserve">
<style type="text/css">
	.st0{display:none;}
	.st1{fill-rule:evenodd;clip-rule:evenodd;}
	.st2{fill:none;}
</style>
<g id="sSwPUB.tif" class="st0">
	
		<image style="display:inline;overflow:visible;" width="1088" height="906" id="Layer_0_1_" xlink:href="235B6E4CFE4AD6B5.png"  transform="matrix(0.5 0 0 0.5 -225.5568 -81.5129)">
	</image>
</g>
<path class="st1" d="M79.1,100.6L131,8.5c-2.2,1-3.7,1.9-6.1,2.8L82.3,84.2l-3.3-29.7l-3.3,29.7L37.7,17.1c20.4,6,45.3,7,68,3.2
	L85.6,56.7l2.7,5.9l27.5-48.9c-24.6,6.1-56.8,5.2-79.4-2c21.7-9,57.2-8.2,81.3-2.1l2-4.4C91.5-2.9,54-1.3,27.1,8.5"/>
<polyline class="st1" points="158.1,100.6 86.2,97.8 103.9,82.8 82.4,94.8 79.1,100.6 "/>
<polyline class="st1" points="0,100.6 72,97.8 54.3,82.8 75.8,94.8 79.1,100.6 "/>
<path class="st1" d="M79.1,100.6l-51.9,92.1c2.2-1,3.7-1.9,6.1-2.8L75.8,117l3.3,29.7l3.3-29.7l38.1,67.1c-20.4-6-45.3-7-68-3.2
	l20.1-36.5l-2.7-5.9l-27.5,48.9c24.6-6.1,56.8-5.2,79.4,2c-21.7,9-57.2,8.2-81.3,2.1l-2,4.4c28.3,8.1,65.8,6.5,92.6-3.4"/>
<polyline class="st1" points="158.1,100.6 86.2,103.4 103.9,118.4 82.4,106.4 79.1,100.6 "/>
<polyline class="st1" points="0,100.6 72,103.4 54.3,118.4 75.8,106.4 79.1,100.6 "/>
</svg>
