<?xml version="1.0" encoding="UTF-8"?>
<svg width="60px" height="48px" viewBox="0 0 60 48" version="1.1" xmlns="http://www.w3.org/2000/svg" xmlns:xlink="http://www.w3.org/1999/xlink">
    <title>logotype_2</title>
    <g id="Tablet" stroke="none" stroke-width="1" fill="none" fill-rule="evenodd">
        <g id="Artboard" fill-rule="nonzero">
            <g id="logotype_2" transform="translate(0.003524, 0.000000)">
                <path d="M43.5691102,47.9683273 C40.7513211,47.9683273 37.9350301,46.4313514 36.4100384,43.8322743 L25.847449,25.0485119 L15.2863576,43.8337724 C13.0572932,47.8514812 8.01043977,49.1502707 4.13803959,46.906226 C0.147295274,44.6606833 -1.1425061,39.5808733 1.0865583,35.6815086 L18.5730292,4.13755098 C20.0980208,1.65681802 22.7974657,0.00149802715 25.7321009,0.00149802715 C28.6652381,0.00149802715 31.364683,1.65532 32.8911727,4.13755098 L50.6098378,35.5631645 C52.8389022,39.5793753 51.4307566,44.5423392 47.5583565,46.7863839 C46.2685551,47.6147929 44.8604096,47.9683273 43.5691102,47.9683273" id="Path" fill="#EC9982"></path>
                <path d="M59.9964759,47.9683273 L43.5661141,47.9683273 L43.5661141,26.7023339 C43.5661141,22.0929044 47.2048221,18.431726 51.781295,18.431726 C56.3577679,18.431726 59.9949778,22.0944024 59.9949778,26.7023339 L59.9949778,47.9683273 L59.9964759,47.9683273 Z" id="Path" fill="#0756C3"></path>
                <path d="M51.781295,16.5412158 C56.3173212,16.5412158 59.9949778,12.8380927 59.9949778,8.27060788 C59.9949778,3.70312311 56.3173212,-4.25764923e-15 51.781295,-4.25764923e-15 C47.2437708,-4.25764923e-15 43.5661141,3.70312311 43.5661141,8.27060788 C43.5661141,12.8380927 47.2437708,16.5412158 51.781295,16.5412158" id="Path" fill="#0756C3"></path>
            </g>
        </g>
    </g>
</svg>